<!DOCTYPE svg PUBLIC "-//W3C//DTD SVG 1.1//EN" "http://www.w3.org/Graphics/SVG/1.1/DTD/svg11.dtd">
<!-- Uploaded to: SVG Repo, www.svgrepo.com, Transformed by: SVG Repo Mixer Tools -->
<svg fill="#443a92" version="1.1" id="Capa_1" xmlns="http://www.w3.org/2000/svg" xmlns:xlink="http://www.w3.org/1999/xlink" width="800px" height="800px" viewBox="0 0 348.006 348.006" xml:space="preserve">
<g id="SVGRepo_bgCarrier" stroke-width="0"/>
<g id="SVGRepo_tracerCarrier" stroke-linecap="round" stroke-linejoin="round"/>
<g id="SVGRepo_iconCarrier"> <g> <g> <g> <path d="M123.312,84.374c2.109,1.023,4.341,1.509,6.538,1.509c5.565,0,10.912-3.111,13.506-8.455l26.691-55 c3.616-7.452,0.507-16.427-6.946-20.043c-7.453-3.618-16.426-0.508-20.044,6.945l-26.691,55 C112.749,71.782,115.858,80.755,123.312,84.374z"/> <path d="M190.13,84.374c2.108,1.023,4.341,1.509,6.538,1.509c5.564,0,10.912-3.111,13.506-8.455l26.691-55 c3.615-7.452,0.507-16.427-6.946-20.043c-7.452-3.618-16.427-0.508-20.044,6.945l-26.691,55 C179.566,71.782,182.677,80.755,190.13,84.374z"/> <path d="M318.23,257.13h-36.978c3.429-6.679,6.039-13.745,7.781-21.085c18.247-4.558,30.612-13.523,38.438-21.424 c12.857-12.979,20.534-30.247,20.534-46.19c0-26.376-12.119-39.663-22.286-46.164c-11.079-7.085-22.843-8.143-28.869-8.143 c-0.896,0-1.612,0.024-2.116,0.05c-1.067,0.014-2.135,0.085-3.195,0.186c-0.762-7.571-7.152-13.481-14.924-13.481h-220 c-8.284,0-15,6.716-15,15v98c0,15.339,3.586,30.054,10.361,43.253H15c-8.284,0-15,6.716-15,15c0,41.355,33.645,75,75,75h183.229 c41.355,0,75-33.645,75-75C333.23,263.846,326.515,257.13,318.23,257.13z M291.615,144.818c1.869-0.723,4.729-0.688,4.729-0.688 c0.116-0.004,0.288-0.008,0.507-0.008c14.038,0,21.155,8.178,21.155,24.307c0,9.17-7.137,26.216-26.393,35.024L291.615,144.818 L291.615,144.818z M258.23,317.13H75.001c-19.557,0-36.239-12.539-42.43-30h268.09C294.47,304.591,277.787,317.13,258.23,317.13z "/> </g> </g> </g> </g>
</svg>